<svg xmlns="http://www.w3.org/2000/svg" viewBox="0 0 182 91.23"><defs><style>.cls-1{fill:#848788;}.cls-2{fill:#16355a;}</style></defs><g id="Layer_2" data-name="Layer 2"><g id="Layer_1-2" data-name="Layer 1"><g id="Layer_2-2" data-name="Layer 2"><g id="Layer_1-2-2" data-name="Layer 1-2"><path class="cls-1" d="M5.6,83.6h4.61c2.33,0,3.07-1,3.71-3.84h1.41l-.48,5.41H0V84.05c2.14-.06,2.56-.61,2.56-2.43v-15c0-1.82-.42-2.36-2.56-2.43V63.12H8.32v1.12c-2.27.07-2.72.67-2.72,2.5Z"/><path class="cls-1" d="M17.39,84.05c2.14,0,2.61-.61,2.61-2.43v-15c0-1.82-.42-2.36-2.56-2.43V63.12H25.5c5.7,0,8,1.92,8,5.44,0,2.31-1,4-4,4.77v.13c3.52.54,5.15,2.85,5.15,5.66,0,4.26-3.58,6-7.71,6H17.39Zm8.89-11.14c3.11,0,4.1-1.34,4.1-4,0-3.1-1.12-4.22-4.22-4.22H23v8.22Zm.77,10.69c3.43,0,4.32-1.44,4.32-4.67s-1-4.48-4.86-4.48H23V83.6Z"/><path class="cls-1" d="M44,84.05c2.15-.06,2.56-.61,2.56-2.43v-15c0-1.82-.41-2.36-2.56-2.43V63.12H59.1l.39,5H58.15c-.92-2.81-1.37-3.39-3.35-3.39H49.61v8.7h3c2,0,2.62-.44,2.75-2.27h1.31V77.3H55.34c-.13-1.76-.74-2.37-2.72-2.37h-3v6.59c0,1.89.51,2.47,2.82,2.53v1.12H44Z"/><path class="cls-1" d="M67.54,85.55c-4.28,0-7.36-3.07-7.36-8.28S63.26,69,67.48,69c4.74,0,7.42,3.61,7.42,8.45C74.9,82.51,71.8,85.55,67.54,85.55Zm-.06-15c-3.2,0-4.16,2.43-4.16,6.4,0,4.83,1.15,7,4.29,7,2.75,0,4.16-2.31,4.16-6.44C71.77,72.66,70.26,70.55,67.48,70.55Z"/><path class="cls-1" d="M85.75,69a3.08,3.08,0,0,1,1,.16L86,72.27a2.62,2.62,0,0,0-1-.16c-2.62,0-3.49,1-3.49,4.13v5.6c0,1.83.32,2.15,2.72,2.24v1.09H76.37V84.08c1.83-.13,2.24-.41,2.24-2.24V74c0-2.33-.45-2.65-2.33-2.72v-1L80.37,69h.48a10.54,10.54,0,0,1,.55,3.65C82.64,70.48,84,69,85.75,69Z"/><path class="cls-1" d="M88,84.21v-3.1h2.15c.22,2.17,1.18,3,3.42,3,1.82,0,3.3-.74,3.3-2.78,0-1.73-.93-2.34-2.76-2.79l-1.88-.44c-2.4-.58-4.07-1.86-4.07-4.45,0-3,2.53-4.61,5.6-4.61a10.24,10.24,0,0,1,4.8,1.12V73h-2a2.71,2.71,0,0,0-2.87-2.54h-.13c-1.89,0-3,.93-3,2.47,0,1.34.61,2.08,2.56,2.52l1.89.45c3,.71,4.38,2,4.38,4.35,0,3.2-2.36,5.28-6.11,5.28A9.34,9.34,0,0,1,88,84.21Z"/><path class="cls-1" d="M101,85.17V84.08c1.83-.13,2.24-.41,2.24-2.24V74c0-2.33-.45-2.65-2.33-2.72v-1L105.7,69h.48V81.8c0,1.83.23,2.15,2.24,2.24v1.09Zm3.49-18.59a2,2,0,1,1,2-2,2,2,0,0,1-2,2Z"/><path class="cls-1" d="M110.25,84.08c1.82-.13,2.24-.41,2.24-2.24V66.48c0-2.33-.55-2.65-2.43-2.72v-1l4.48-.93H115a11.35,11.35,0,0,1,.4,3.17V82.07c0,1.56.22,1.92,2.24,2v1.09h-7.39Zm5.44-7.29,4.38-4.48c1.06-1.06.61-1.7-.86-1.76V69.46h6v1.09c-1.28.12-2.17,1.15-3.68,2.62l-2.94,2.91,4.83,6.08a4.11,4.11,0,0,0,2.82,1.92v1.09h-3.87Z"/><path class="cls-1" d="M137.11,69a3.08,3.08,0,0,1,1,.16l-.7,3.16a2.62,2.62,0,0,0-1-.16c-2.63,0-3.49,1-3.49,4.13v5.6c0,1.83.32,2.15,2.72,2.24v1.09h-7.87V84.08c1.82-.13,2.24-.41,2.24-2.24V74c0-2.33-.45-2.65-2.34-2.72v-1l4.1-1.28h.48a10.78,10.78,0,0,1,.54,3.65C134,70.48,135.38,69,137.11,69Z"/><path class="cls-1" d="M139.65,85.17V84.08c1.82-.13,2.24-.41,2.24-2.24V74c0-2.33-.45-2.65-2.34-2.72v-1L144.32,69h.48V81.8c0,1.83.22,2.15,2.24,2.24v1.09Zm3.48-18.59a2,2,0,1,1,2-2,2,2,0,0,1-2,2Z"/><path class="cls-1" d="M163.68,81.84c0,1.83.38,2.11,2.08,2.24v1.09h-7.23V84.08c2-.09,2.24-.45,2.24-2V73.94c0-1.89-.8-2.63-2.34-2.63a5.9,5.9,0,0,0-4.42,2v8.74c0,1.56.23,1.92,2.24,2v1.09h-7.39V84.08c1.83-.13,2.24-.41,2.24-2.24V74c0-2.33-.45-2.65-2.33-2.72v-1L152.86,69h.48a8.92,8.92,0,0,1,.55,2.79c1.44-1.51,3-2.76,5.47-2.76a4,4,0,0,1,4.32,3.66,3.32,3.32,0,0,1,0,.63Z"/><path class="cls-1" d="M167,87.54a2.67,2.67,0,0,1,1.63-2.24l1.35-.07a4.2,4.2,0,0,0-.35,1.67c0,1.79,1,2.78,4,2.78,3.36,0,4.48-1.25,4.48-3,0-2-.8-2.37-5-2.47a28.5,28.5,0,0,1-2.85-.19,2.35,2.35,0,0,1-2.08-2.5c0-1.24,1.25-2.17,3-2.75a4.69,4.69,0,0,1-3.8-4.54c0-3.11,2.33-5.25,6-5.25a7.83,7.83,0,0,1,2.5.35,8.57,8.57,0,0,0,2.4.51,4.32,4.32,0,0,0,2.59-1L182,71a4.88,4.88,0,0,1-2.24.58,5.17,5.17,0,0,1-2.24-.61,4.35,4.35,0,0,1,1.92,3.39c0,2.11-1.38,4.64-6,4.87a4.09,4.09,0,0,1-.7,0c-1.15.32-2,1-2,1.66,0,.48.38.8,1.15.8h2.94c3.75,0,5.89,1,5.89,4.42,0,3.13-3.07,5.12-7,5.12C169.33,91.22,167,89.49,167,87.54Zm9.28-13.31c0-2.56-.93-3.72-2.94-3.72s-2.91,1.09-2.91,3.62,1,3.62,2.94,3.62,2.93-1.09,2.93-3.52Z"/><path class="cls-2" d="M41.94,32.75c2.39-2.57,6.08-6.35,8.71-8.61,5.56-5,13.36-8.15,20.84-7.71,4.85.08,12,2.46,19,4.42,3.89,1.08,10.42,3.19,15.44,3.72,6.36.67,13.08-2,13.08-2s-7,8.25-15.64,11.69c-6.75,2.7-15.59,2.41-22.43.25-6.71-1.64-16.41-7-29.19-4.75A59.14,59.14,0,0,0,42,32.71"/><path class="cls-2" d="M56.24,15.27A66.75,66.75,0,0,1,62.89,13c8.55-1.89,17.69-.31,25.52,2.21,3.21,1,6.52,2,9.78,2.86a52,52,0,0,0,12,2,24.29,24.29,0,0,0,11.73-3.23c5.88-3.57,14.69-14.26,14.69-14.26s-8.41,4.27-13.12,4.64c-6.35.29-12.25-1.39-17.9-3.28C98.93,1.77,92.16-.09,85,0,78.48.17,73.28,2.78,67.8,6.32a61.46,61.46,0,0,0-11.56,9"/></g></g></g></g></svg>